<svg width="282" height="47" xmlns="http://www.w3.org/2000/svg" xmlns:xlink="http://www.w3.org/1999/xlink" xml:space="preserve" overflow="hidden"><g transform="translate(-1700 -93)"><path d="M28.0928 2.55299C30.9537 4.43544 32.2451 7.68876 32.2451 12.611 32.2451 17.4984 30.9488 20.9355 28.3163 22.8825 25.6888 24.8295 21.6458 25.7832 16.1573 25.7832 10.6689 25.7832 7.0083 25.0034 4.14736 23.0216 1.37087 21.0398 0 17.6077 0 12.611 0 7.68876 1.29636 4.43544 4.15233 2.55299 7.01327 0.675499 10.6341 0 16.1623 0 21.6507 0 25.2368 0.675499 28.0928 2.55299ZM23.409 19.1474C23.409 19.1474 24.8146 17.3196 24.8146 12.6507 24.8146 7.98181 23.4537 6.59108 23.4537 6.59108 23.4537 6.59108 21.1093 5.48843 16.1673 5.48843 11.2202 5.48843 8.79142 6.59108 8.79142 6.59108 8.79142 6.59108 7.42552 7.79804 7.42552 12.6507 7.42552 17.5034 8.79142 19.1474 8.79142 19.1474 8.79142 19.1474 10.6341 20.3742 16.1673 20.3742 21.6954 20.3742 23.409 19.1474 23.409 19.1474Z" fill="#002855" transform="matrix(1 0 0 1.00709 1700.02 93)"/><path d="M190.019 2.55299C192.88 4.43544 194.176 7.68876 194.176 12.611 194.176 17.4984 192.88 20.9355 190.247 22.8825 187.62 24.8295 183.577 25.7832 178.088 25.7832 172.6 25.7832 168.939 25.0034 166.083 23.0216 163.302 21.0398 161.926 17.6027 161.926 12.611 161.926 7.68876 163.227 4.43048 166.083 2.55299 168.939 0.675499 172.56 0 178.088 0 183.577 0 187.163 0.675499 190.019 2.55299ZM185.34 19.1474C185.34 19.1474 186.751 17.3196 186.751 12.6507 186.751 7.98181 185.38 6.59108 185.38 6.59108 185.38 6.59108 183.035 5.48843 178.093 5.48843 173.151 5.48843 170.717 6.59108 170.717 6.59108 170.717 6.59108 169.356 7.79804 169.356 12.6507 169.356 17.5034 170.717 19.1474 170.717 19.1474 170.717 19.1474 172.56 20.3742 178.093 20.3742 183.621 20.3742 185.34 19.1474 185.34 19.1474Z" fill="#002855" transform="matrix(1 0 0 1.00709 1700.02 93)"/><path d="M112.585 0.605962 112.585 25.2915 102.348 25.2915C98.8314 19.5299 93.9986 13.8676 89.1311 8.89572L89.1311 25.2915 81.6757 25.2915 81.6757 0.605962C81.6757 0.605962 88.6642 0.605962 90.4125 0.605962 90.4125 0.605962 98.449 7.26658 104.985 16.3659L104.985 0.605962 112.585 0.605962Z" fill="#002855" transform="matrix(1 0 0 1.00709 1700.02 93)"/><path d="M119.484 0.605962 127.168 0.605962 127.168 25.2915 119.484 25.2915 119.484 0.605962Z" fill="#002855" transform="matrix(1 0 0 1.00709 1700.02 93)"/><path d="M158.385 18.9736 158.37 18.8842C156.701 19.2368 154.798 19.4107 150.015 19.4107 145.232 19.4107 143.072 18.5116 143.072 18.5116 143.072 18.5116 140.901 16.5944 140.901 12.7898 140.901 8.98513 142.987 7.26161 142.987 7.26161 142.987 7.26161 145.525 6.30797 150.443 6.30797 155.355 6.30797 156.606 6.48677 158.395 6.87419L158.395 0.62583C155.817 0.183775 153.428 0 149.489 0 143.489 0 139.699 0.64073 136.739 2.58776 133.779 4.46525 132.532 7.7285 132.532 12.7153 132.532 17.712 133.868 21.0448 136.739 23.0266 139.615 25.0133 143.534 25.7882 149.489 25.7882 153.055 25.7882 156.055 25.5696 158.385 25.2418L158.385 18.9736Z" fill="#002855" transform="matrix(1 0 0 1.00709 1700.02 93)"/><path d="M66.1492 0.605962 75.5118 0.605962 75.5118 25.2915 68.136 25.2915 68.136 8.57287C65.3694 12.9537 61.9919 19.3411 59.5432 25.2865L53.4488 25.2865C50.7071 18.909 47.1756 12.2235 44.9207 8.57287L44.9207 25.2915 37.5895 25.2915 37.5895 0.605962 47.1607 0.605962C47.1607 0.605962 49.5151 3.29802 52.3611 7.89241 53.7717 10.1672 55.2419 12.899 56.5532 16.0034 57.7502 13.3063 58.376 12.3924 61.1773 7.59439 62.3644 5.5679 63.6161 3.4818 66.1492 0.605962Z" fill="#002855" transform="matrix(1 0 0 1.00709 1700.02 93)"/><path d="M228.433 0.605962 237.795 0.605962 237.795 25.2915 230.415 25.2915 230.415 8.57287C227.643 12.9537 224.266 19.3411 221.822 25.2865L215.727 25.2865C212.986 18.909 209.454 12.2235 207.209 8.57287L207.209 25.2915 199.868 25.2915 199.868 0.605962 209.439 0.605962C209.439 0.605962 211.794 3.29802 214.645 7.89241 216.05 10.1672 217.521 12.899 218.832 16.0034 220.029 13.3063 220.65 12.3924 223.461 7.59439 224.643 5.5679 225.895 3.4818 228.433 0.605962Z" fill="#002855" transform="matrix(1 0 0 1.00709 1700.02 93)"/><path d="M272.599 0.605962 281.961 0.605962 281.961 25.2915 274.585 25.2915 274.585 8.57287C271.814 12.9537 268.436 19.3411 265.993 25.2865L259.898 25.2865C257.156 18.909 253.625 12.2235 251.375 8.57287L251.375 25.2915 244.034 25.2915 244.034 0.605962 253.605 0.605962C253.605 0.605962 255.964 3.29802 258.805 7.89241 260.216 10.1672 261.681 12.899 262.997 16.0034 264.194 13.3063 264.82 12.3924 267.622 7.59439 268.814 5.5679 270.06 3.4818 272.599 0.605962Z" fill="#002855" transform="matrix(1 0 0 1.00709 1700.02 93)"/><path d="M133.913 37.515C134.688 37.371 135.641 37.2965 136.784 37.2965 137.921 37.2965 138.875 37.371 139.635 37.515 140.409 37.6541 141.075 37.8975 141.626 38.2501 142.192 38.6028 142.6 39.0796 142.853 39.6806 143.106 40.2816 143.236 41.0365 143.236 41.9455 143.236 42.8644 143.106 43.6342 142.853 44.2501 142.6 44.8611 142.192 45.3429 141.641 45.7054 141.09 46.0581 140.424 46.3064 139.649 46.4505 138.875 46.5945 137.921 46.669 136.779 46.669 135.641 46.669 134.683 46.5945 133.908 46.4505 133.143 46.3064 132.482 46.0581 131.916 45.7054 131.365 45.3429 130.957 44.8611 130.704 44.2501 130.451 43.6342 130.322 42.8644 130.322 41.9455 130.322 41.0365 130.451 40.2816 130.704 39.6806 130.957 39.0796 131.36 38.6028 131.916 38.2501 132.487 37.8975 133.148 37.6541 133.913 37.515ZM136.784 45.4968C137.936 45.4968 138.8 45.4074 139.386 45.2286 139.972 45.0399 140.399 44.6972 140.663 44.2005 140.941 43.6938 141.075 42.9488 141.075 41.9753 141.075 41.2104 141.01 40.6044 140.876 40.1574 140.757 39.7005 140.514 39.3478 140.146 39.0895 139.793 38.8312 139.361 38.6624 138.85 38.5879 138.353 38.5034 137.663 38.4587 136.774 38.4587 135.899 38.4587 135.209 38.5034 134.697 38.5879 134.201 38.6673 133.774 38.8312 133.421 39.0895 133.068 39.3478 132.825 39.7054 132.691 40.1574 132.572 40.6044 132.507 41.2104 132.507 41.9753 132.507 42.7154 132.567 43.3064 132.691 43.7534 132.825 44.2005 133.063 44.5581 133.406 44.8213 133.759 45.0895 134.191 45.2683 134.697 45.3627 135.229 45.4521 135.919 45.4968 136.784 45.4968ZM168.164 44.2104C167.911 43.5945 167.782 42.8296 167.782 41.9207 167.782 41.0117 167.911 40.2567 168.164 39.6557 168.418 39.0548 168.82 38.5829 169.376 38.2402 169.928 37.8875 170.588 37.6442 171.348 37.5051 172.123 37.366 173.077 37.3014 174.219 37.3014 175.6 37.3014 176.906 37.4107 178.133 37.6342L177.636 38.8064C176.787 38.6028 175.724 38.4985 174.453 38.4985 173.568 38.4985 172.873 38.5382 172.361 38.6127 171.855 38.6822 171.398 38.8362 171.001 39.0746 170.613 39.313 170.345 39.6607 170.186 40.1177 170.042 40.5746 169.972 41.1756 169.972 41.9356 169.972 42.6905 170.042 43.3015 170.186 43.7634 170.34 44.2203 170.613 44.573 171.001 44.8313 171.388 45.0796 171.84 45.2485 172.361 45.3329 172.883 45.4174 173.578 45.4621 174.453 45.4621 175.704 45.4621 176.762 45.3627 177.636 45.164L178.133 46.3362C176.961 46.5597 175.654 46.669 174.219 46.669 173.092 46.669 172.138 46.5895 171.368 46.4356 170.593 46.2816 169.928 46.0233 169.376 45.6657 168.82 45.3031 168.418 44.8213 168.164 44.2104ZM268.143 37.669 267.661 38.8163C266.812 38.6028 265.63 38.4935 264.13 38.4935 262.903 38.4935 261.994 38.6028 261.408 38.8263 260.832 39.0399 260.544 39.4173 260.544 39.9587 260.544 40.371 260.777 40.6789 261.239 40.8875 261.701 41.0912 262.565 41.2303 263.827 41.2998 265.476 41.3942 266.668 41.6524 267.408 42.0746 268.158 42.4869 268.536 43.1077 268.536 43.9422 268.536 44.9107 268.049 45.6111 267.075 46.0382 266.102 46.4604 264.656 46.669 262.744 46.669 261.194 46.669 259.814 46.5399 258.597 46.2816L259.094 45.1491C260.122 45.3627 261.329 45.472 262.709 45.472 263.946 45.472 264.87 45.3627 265.481 45.1491 266.087 44.9356 266.395 44.5531 266.395 44.0018 266.395 43.5746 266.151 43.2319 265.665 42.9836 265.188 42.7253 264.314 42.5614 263.042 42.4919 261.393 42.4074 260.201 42.1839 259.461 41.8213 258.731 41.4587 258.368 40.8776 258.368 40.073 258.368 39.0945 258.855 38.3842 259.829 37.9471 260.802 37.51 262.233 37.2915 264.125 37.2915 265.575 37.2965 266.916 37.4206 268.143 37.669ZM277.203 46.4902 275.161 46.4902 275.161 38.6375 270.398 38.6375 270.398 37.52 281.946 37.52 281.946 38.6375 277.203 38.6375 277.203 46.4902ZM254.946 37.515 252.905 37.515 252.905 43.4505C252.905 44.2501 252.622 44.7915 252.06 45.0746 251.494 45.3478 250.55 45.4869 249.224 45.4869 247.898 45.4869 246.954 45.3478 246.403 45.0597 245.852 44.7766 245.574 44.2402 245.574 43.4505L245.574 37.515 243.517 37.515 243.517 43.5796C243.517 44.1955 243.636 44.7121 243.88 45.1243 244.133 45.5366 244.516 45.8544 245.027 46.078 245.549 46.3015 246.135 46.4554 246.786 46.5399 247.451 46.6243 248.261 46.669 249.224 46.669 250.198 46.669 251.012 46.6243 251.663 46.5399 252.329 46.4554 252.92 46.3015 253.436 46.078 253.958 45.8544 254.34 45.5366 254.579 45.1243 254.822 44.7121 254.941 44.1955 254.941 43.5796L254.941 37.515ZM231.333 38.6226 231.333 41.7269 235.63 41.7269C236.295 41.7269 236.797 41.5978 237.14 41.3395 237.492 41.0713 237.671 40.6988 237.671 40.222 237.671 39.7005 237.497 39.3031 237.155 39.0349 236.822 38.7617 236.34 38.6226 235.709 38.6226L231.333 38.6226ZM236.092 42.5366C237.011 42.7402 238.595 44.0614 240.855 46.4902L238.317 46.4902C236.171 44.0515 234.602 42.8346 233.603 42.8346L231.329 42.8346 231.329 46.4902 229.322 46.4902 229.322 37.515 236.022 37.515C238.61 37.515 239.906 38.3842 239.906 40.1276 239.906 40.8329 239.608 41.4041 239.012 41.8511 238.416 42.3031 237.443 42.5266 236.092 42.5366ZM219.905 46.4902 221.946 46.4902 221.946 38.6375 226.689 38.6375 226.689 37.52 215.141 37.52 215.141 38.6375 219.905 38.6375 219.905 46.4902ZM206.34 37.515 206.34 46.4902 203.886 46.4902C201.865 44.0713 199.615 41.6028 197.151 39.0895L197.151 46.4902 195.16 46.4902 195.16 37.515 197.847 37.515C199.883 39.5167 202.039 41.8561 204.318 44.5432L204.318 37.515 206.34 37.515ZM188.961 43.9919C189.006 44.0614 189.502 44.8958 190.456 46.4902L192.731 46.4902C191.092 44.0117 189.393 41.0167 187.62 37.515L184.337 37.515C182.578 40.2518 180.865 43.2468 179.196 46.4902L181.287 46.4902C181.794 45.4621 182.216 44.6276 182.549 43.9919L188.961 43.9919ZM185.593 38.5978 186.16 38.5978C186.999 40.3213 187.734 41.7468 188.365 42.8743L183.105 42.8743C183.855 41.5084 184.684 40.0829 185.593 38.5978ZM158.151 37.515 156.11 37.515 156.11 43.4505C156.11 44.2501 155.827 44.7915 155.265 45.0746 154.699 45.3478 153.755 45.4869 152.429 45.4869 151.103 45.4869 150.164 45.3478 149.608 45.0597 149.057 44.7766 148.779 44.2402 148.779 43.4505L148.779 37.515 146.722 37.515 146.722 43.5796C146.722 44.1955 146.842 44.7121 147.085 45.1243 147.338 45.5366 147.721 45.8544 148.227 46.078 148.749 46.3015 149.335 46.4554 149.986 46.5399 150.651 46.6243 151.461 46.669 152.424 46.669 153.398 46.669 154.212 46.6243 154.863 46.5399 155.529 46.4554 156.12 46.3015 156.636 46.078 157.158 45.8544 157.54 45.5366 157.779 45.1243 158.022 44.7121 158.141 44.1955 158.141 43.5796L158.141 37.515ZM122.459 41.2005C121.098 39.8892 119.712 38.6574 118.297 37.52L115.674 37.52C117.452 38.9107 119.345 40.5349 121.346 42.3975L121.346 46.4902 123.368 46.4902 123.368 42.3975C125.151 40.9471 126.989 39.318 128.891 37.52L126.487 37.52C125.31 38.7021 123.964 39.9289 122.459 41.2005ZM107.141 46.4902C106.192 44.8958 105.691 44.0614 105.646 43.9919L99.2238 43.9919C98.891 44.6276 98.4738 45.4571 97.9622 46.4902L95.8712 46.4902C97.54 43.2468 99.2536 40.2567 101.012 37.515L104.305 37.515C106.073 41.0167 107.777 44.0068 109.416 46.4902L107.141 46.4902ZM102.845 38.5978 102.283 38.5978C101.374 40.0829 100.545 41.5084 99.795 42.8743L105.055 42.8743C104.419 41.7468 103.684 40.3213 102.845 38.5978ZM89.4887 46.4902 91.5301 46.4902 91.5301 38.6375 96.2735 38.6375 96.2735 37.52 84.7254 37.52 84.7254 38.6375 89.4887 38.6375 89.4887 46.4902ZM83.0019 46.4902C82.0483 44.8958 81.5516 44.0614 81.5069 43.9919L75.0847 43.9919C74.7519 44.6276 74.3347 45.4571 73.8231 46.4902L71.732 46.4902C73.4009 43.2468 75.1145 40.2567 76.8727 37.515L80.1559 37.515C81.9241 41.0167 83.6277 44.0068 85.2668 46.4902L83.0019 46.4902ZM78.7055 38.5978 78.1393 38.5978C77.2304 40.0829 76.4009 41.5084 75.6509 42.8743L80.9108 42.8743C80.28 41.7468 79.5449 40.3213 78.7055 38.5978ZM63.3876 37.515 58.6094 37.515 58.6094 46.4902 63.3876 46.4902C64.5151 46.4902 65.4737 46.4157 66.2585 46.2717 67.0432 46.1276 67.7138 45.8793 68.2651 45.5366 68.8164 45.1938 69.2237 44.727 69.477 44.1458 69.7452 43.5597 69.8744 42.8346 69.8744 41.9703 69.8744 41.111 69.7403 40.3958 69.477 39.8197 69.2237 39.2336 68.8115 38.7766 68.2502 38.4438 67.6989 38.1011 67.0333 37.8627 66.2585 37.7236 65.4836 37.5845 64.525 37.515 63.3876 37.515ZM67.5151 40.2468C67.6591 40.6839 67.7287 41.265 67.7287 41.9852 67.7287 42.6806 67.6492 43.2468 67.4952 43.6839 67.3512 44.1111 67.0929 44.4538 66.7154 44.7121 66.3479 44.9604 65.8959 45.1342 65.3545 45.2286 64.823 45.323 64.1277 45.3727 63.2634 45.3727L60.6111 45.3727 60.6111 38.6375 63.2634 38.6375C64.1475 38.6375 64.8529 38.6773 65.3694 38.7518 65.8909 38.8312 66.3379 38.9902 66.7154 39.2286 67.1078 39.467 67.3711 39.8097 67.5151 40.2468ZM40.8875 37.515 42.8942 37.515 42.8942 45.3429 49.7634 45.3429 49.7634 46.4902 40.8875 46.4902 40.8875 37.515ZM37.7435 37.515 27.9736 37.515 27.9736 46.4902 37.7435 46.4902 37.7435 45.3727 29.9802 45.3727 29.9802 42.2932 35.5034 42.2932 35.5034 41.1856 29.9802 41.1856 29.9802 38.6375 37.7435 38.6375 37.7435 37.515ZM21.7302 37.515 23.7716 37.515 23.7716 43.5796C23.7716 44.1955 23.6524 44.7121 23.409 45.1243 23.1656 45.5366 22.7832 45.8544 22.2617 46.078 21.7401 46.3015 21.1491 46.4554 20.4885 46.5399 19.8378 46.6243 19.0232 46.669 18.0497 46.669 17.0861 46.669 16.2765 46.6243 15.611 46.5399 14.9603 46.4554 14.3742 46.3015 13.8527 46.078 13.3461 45.8544 12.9636 45.5366 12.7103 45.1243 12.4669 44.7121 12.3477 44.1955 12.3477 43.5796L12.3477 37.515 14.404 37.515 14.404 43.4505C14.404 44.2402 14.6822 44.7766 15.2335 45.0597 15.7848 45.3429 16.7285 45.4869 18.0547 45.4869 19.3809 45.4869 20.3295 45.3478 20.8908 45.0746 21.457 44.7915 21.7352 44.2501 21.7352 43.4505L21.7352 37.515ZM10.0083 37.515 0.422187 37.515 0.422187 46.4902 2.42882 46.4902 2.42882 42.7452 7.95201 42.7452 7.95201 41.6375 2.42882 41.6375 2.42882 38.6375 10.0083 38.6375 10.0083 37.515Z" fill="#002855" fill-rule="evenodd" transform="matrix(1 0 0 1.00709 1700.02 93)"/></g></svg>